<svg width="20" height="22" viewBox="0 0 20 22" fill="none" xmlns="http://www.w3.org/2000/svg">
<path d="M16.6356 1C17.4882 1.56684 18.2641 2.23979 18.9445 3M3.30884 1C2.4563 1.56684 1.68041 2.23979 1 3M15 18.5L17.5 21M4.9983 18.5L2.4983 21M6.32141 11.3985L8.29127 13.6243C8.52489 13.8883 8.90366 13.8883 9.13728 13.6243L13.5 8.6947M19 11C19 15.9706 14.9706 20 10 20C5.02944 20 1 15.9706 1 11C1 6.02944 5.02944 2 10 2C14.9706 2 19 6.02944 19 11Z" stroke="white" stroke-opacity="0.5" stroke-width="1.5" stroke-linecap="round"/>
</svg>
