<svg width="21" height="21" viewBox="0 0 21 21" fill="none" xmlns="http://www.w3.org/2000/svg">
<path d="M11.0404 1C16.011 1 20.0404 5.02944 20.0404 10M12.0404 5C14.2496 5 16.0404 6.79086 16.0404 9M5.38538 15.7534C7.38937 17.7574 9.54703 19.0352 11.3158 19.8349C11.4042 19.8748 11.4484 19.8948 11.9519 20.0243C13.2777 20.3653 15.7759 19.9096 16.896 19.1225C17.3214 18.8236 17.5044 18.6406 17.8704 18.2746C18.246 17.899 18.4338 17.7112 18.5537 17.5204C18.9624 16.8699 18.9624 16.0428 18.5537 15.3923C18.4338 15.2015 18.246 15.0137 17.8704 14.638L17.6025 14.3701C17.234 14.0016 17.0498 13.8174 16.8407 13.71C16.5322 13.5516 16.1784 13.5049 15.8394 13.5779C15.6096 13.6274 15.3839 13.7576 14.9325 14.0179L13.8315 14.6528C13.5994 14.7866 13.4834 14.8536 13.3152 14.8941C13.1936 14.9235 12.984 14.9331 12.8603 14.915C12.6891 14.89 12.597 14.8476 12.4129 14.7628C11.6661 14.419 10.4265 13.7069 9.0546 12.335C7.65244 10.9329 6.93952 9.66886 6.60458 8.928C6.52716 8.75675 6.48845 8.67112 6.46334 8.51017C6.44526 8.39425 6.45025 8.19573 6.47414 8.08087C6.50731 7.92139 6.56453 7.81011 6.67895 7.58755L7.30707 6.3659C7.57307 5.84854 7.70606 5.58987 7.73912 5.3268C7.7743 5.0469 7.72982 4.76275 7.61081 4.50698C7.49896 4.2666 7.29329 4.06092 6.88195 3.64958L6.50075 3.26839C6.12515 2.89278 5.93735 2.70498 5.74654 2.58509C5.09604 2.17636 4.26891 2.17636 3.61842 2.58509C3.42761 2.70498 3.23981 2.89278 2.8642 3.26839C2.49819 3.6344 2.31518 3.81741 2.01629 4.24275C1.22917 5.36287 0.773525 7.86107 1.11452 9.18694C1.24401 9.69042 1.26399 9.7346 1.30394 9.82298C2.10358 11.5918 3.38139 13.7494 5.38538 15.7534Z" stroke="white" stroke-opacity="0.5" stroke-width="1.5" stroke-linecap="round"/>
</svg>
