<svg width="48" height="48" viewBox="0 0 48 48" fill="none" xmlns="http://www.w3.org/2000/svg">
<rect width="48" height="48" rx="24" fill="#5F00FF"/>
<path d="M14.0501 9.47373C18.0964 9.03385 23.2467 10.3367 25.3368 16.5109C25.3818 16.6437 25.2716 16.7806 25.1315 16.7732C10.1882 15.9847 7.38571 24.3957 13.3005 27.1184C19.2543 29.859 19.9468 23.2371 27.181 22.5235C32.346 22.0141 34.6519 23.8932 36.7009 26.7949C36.7953 26.9286 36.6934 27.1121 36.5298 27.1112C29.4502 27.0719 25.3205 31.911 29.9527 35.1312C34.6705 38.411 45.2035 25.7133 44.9662 26.9387C44.8372 27.6049 44.0573 33.0929 40.8622 36.9388C35.9727 42.8241 29.3448 46.0677 20.8622 44.9388C12.3795 43.8099 3.85373 36.131 2.8621 25.9388C1.87048 15.7467 7.19253 10.2192 14.0501 9.47373Z" fill="#EFEFEF"/>
</svg>
