<svg width="24" height="24" viewBox="0 0 24 24" fill="none" xmlns="http://www.w3.org/2000/svg">
<rect width="24" height="24" rx="12" fill="#5F00FF"/>
<path d="M7.02503 4.73687C9.04821 4.51692 11.6234 5.16833 12.6684 8.25543C12.6909 8.32187 12.6358 8.39031 12.5658 8.38661C5.09412 7.99235 3.69285 12.1979 6.65026 13.5592C9.62713 14.9295 9.97342 11.6185 13.5905 11.2618C16.173 11.007 17.326 11.9466 18.3504 13.3975C18.3976 13.4643 18.3467 13.556 18.2649 13.5556C14.7251 13.5359 12.6602 15.9555 14.9763 17.5656C17.3353 19.2055 22.6018 12.8567 22.4831 13.4694C22.4186 13.8024 22.0287 16.5465 20.4311 18.4694C17.9863 21.4121 14.6724 23.0338 10.4311 22.4694C6.18977 21.905 1.92686 18.0655 1.43105 12.9694C0.935238 7.87333 3.59626 5.10961 7.02503 4.73687Z" fill="white"/>
</svg>
