<svg width="64" height="64" viewBox="0 0 64 64" fill="none" xmlns="http://www.w3.org/2000/svg">
<rect width="64" height="64" rx="32" fill="#5F00FF"/>
<path d="M18.7341 12.6277C24.1292 12.0412 30.9963 13.7783 33.7831 22.0106C33.8431 22.1877 33.6962 22.3703 33.5094 22.3604C13.585 21.309 9.84826 32.5237 17.7347 36.154C25.673 39.8081 26.5964 30.9788 36.242 30.0274C43.1287 29.3482 46.2032 31.8536 48.9352 35.7227C49.061 35.9009 48.9252 36.1455 48.707 36.1443C39.2676 36.0919 33.7613 42.5441 39.9375 46.8377C46.228 51.2108 60.272 34.2805 59.9556 35.9144C59.7835 36.8026 58.7438 44.12 54.4836 49.2478C47.9642 57.0949 39.1271 61.4197 27.8169 59.9145C16.5067 58.4093 5.13896 48.1708 3.81679 34.5812C2.49462 20.9916 9.59069 13.6217 18.7341 12.6277Z" fill="white"/>
</svg>
